<?xml version="1.0" encoding="UTF-8" standalone="no"?>
<!-- Created with Inkscape (http://www.inkscape.org/) -->

<svg
   version="1.1"
   id="svg1"
   width="173"
   height="148"
   viewBox="0 0 173 148"
   xmlns="http://www.w3.org/2000/svg"
   xmlns:svg="http://www.w3.org/2000/svg">
  <defs
     id="defs1" />
  <g
     id="g1">
    <g
       id="g8">
      <path
         style="fill-opacity:1.0;fill:#b9b9b9"
         d="m 145.8125,97.316886 c 0.72187,-0.288871 1.58437,-0.253344 1.91667,0.07895 0.33229,0.332292 -0.25834,0.568641 -1.3125,0.52522 -1.16495,-0.04798 -1.4019,-0.284941 -0.60417,-0.604167 z M 51.157895,89 c 0,-1.375 0.226973,-1.9375 0.504386,-1.25 0.277412,0.6875 0.277412,1.8125 0,2.5 -0.277413,0.6875 -0.504386,0.125 -0.504386,-1.25 z M 121.07895,68.416667 c 0.048,-1.164943 0.28494,-1.4019 0.60416,-0.604167 0.28887,0.721875 0.25335,1.584375 -0.0789,1.916667 -0.3323,0.332291 -0.56864,-0.258334 -0.52522,-1.3125 z M 79.8125,54.316886 c 0.721875,-0.288871 1.584375,-0.253344 1.916667,0.07895 0.332291,0.332292 -0.258334,0.568641 -1.3125,0.52522 -1.164943,-0.04798 -1.4019,-0.284941 -0.604167,-0.604167 z m 8.9375,0.02083 c 0.6875,-0.277412 1.8125,-0.277412 2.5,0 0.6875,0.277413 0.125,0.504386 -1.25,0.504386 -1.375,0 -1.9375,-0.226973 -1.25,-0.504386 z M 74.8125,48.316886 c 0.721875,-0.288871 1.584375,-0.253344 1.916667,0.07895 0.332291,0.332292 -0.258334,0.568641 -1.3125,0.52522 -1.164943,-0.04798 -1.4019,-0.284941 -0.604167,-0.604167 z M 40.078947,37.416667 c 0.04798,-1.164943 0.284941,-1.4019 0.604167,-0.604167 0.288871,0.721875 0.253344,1.584375 -0.07895,1.916667 -0.332292,0.332291 -0.568641,-0.258334 -0.52522,-1.3125 z M 32,28.622445 c 0,-0.207656 0.7875,-0.995156 1.75,-1.75 C 35.336056,25.628574 35.371426,25.663944 34.127555,27.25 32.821186,28.915748 32,29.445479 32,28.622445 Z m 10,-10 c 0,-0.207656 0.7875,-0.995156 1.75,-1.75 C 45.336056,15.628574 45.371426,15.663944 44.127555,17.25 42.821186,18.915748 42,19.445479 42,18.622445 Z"
         id="path14" />
      <path
         style="fill-opacity:1.0;fill:#a3a3a3"
         d="m 121.27236,63 c 0,-2.475 0.19502,-3.4875 0.43337,-2.25 0.23836,1.2375 0.23836,3.2625 0,4.5 -0.23835,1.2375 -0.43337,0.225 -0.43337,-2.25 z m -0.19341,-6.583333 c 0.048,-1.164943 0.28494,-1.4019 0.60416,-0.604167 0.28887,0.721875 0.25335,1.584375 -0.0789,1.916667 -0.3323,0.332291 -0.56864,-0.258334 -0.52522,-1.3125 z"
         id="path13" />
      <path
         style="fill-opacity:1.0;fill:#8c8c8c"
         d="m 163.5,89 c 0.99549,-1.1 2.03498,-2 2.30998,-2 0.275,0 -0.31449,0.9 -1.30998,2 -0.99549,1.1 -2.03498,2 -2.30998,2 -0.275,0 0.31449,-0.9 1.30998,-2 z M 7.4588815,64.933469 c -0.3625339,-0.586592 -0.4446839,-1.281 -0.1825556,-1.543128 0.2621283,-0.262129 0.7430661,0.21781 1.0687507,1.066531 0.676184,1.762107 0.099854,2.072058 -0.8861951,0.476597 z M 38.872445,59.25 C 37.628574,57.663944 37.663944,57.628574 39.25,58.872445 40.915748,60.178814 41.445479,61 40.622445,61 c -0.207656,0 -0.995156,-0.7875 -1.75,-1.75 z M 85.75,47.276604 c 1.7875,-0.221826 4.7125,-0.221826 6.5,0 1.7875,0.221827 0.325,0.403322 -3.25,0.403322 -3.575,0 -5.0375,-0.181495 -3.25,-0.403322 z M 65.232003,21 c 0,-1.925 0.205795,-2.7125 0.457323,-1.75 0.251527,0.9625 0.251527,2.5375 0,3.5 -0.251528,0.9625 -0.457323,0.175 -0.457323,-1.75 z"
         id="path12" />
      <path
         style="fill-opacity:1.0;fill:#767676"
         d="m 133.15789,83 c 0,-1.375 0.22698,-1.9375 0.50439,-1.25 0.27741,0.6875 0.27741,1.8125 0,2.5 -0.27741,0.6875 -0.50439,0.125 -0.50439,-1.25 z m -17.65081,-7.988546 c -0.35034,-0.56686 0.0511,-0.734507 0.94098,-0.393011 C 118.18048,75.283234 118.49745,76 117.05902,76 c -0.51754,0 -1.21592,-0.444846 -1.55194,-0.988546 z M 95.8125,54.316886 c 0.721875,-0.288871 1.584375,-0.253344 1.916667,0.07895 0.332291,0.332292 -0.258334,0.568641 -1.3125,0.52522 -1.164943,-0.04798 -1.4019,-0.284941 -0.604167,-0.604167 z M 45.404988,43.75 43.5,41.5 l 2.25,1.904988 c 1.2375,1.047743 2.25,2.060243 2.25,2.25 0,0.800253 -0.804794,0.209457 -2.595012,-1.904988 z M 102.63837,29.5 C 102.32179,28.675 102.49865,28 103.03138,28 103.56412,28 104,28.675 104,29.5 c 0,0.825 -0.17686,1.5 -0.39301,1.5 -0.21616,0 -0.65203,-0.675 -0.96862,-1.5 z M 91.25,4.3106745 c 0.9625,-0.2515276 2.5375,-0.2515276 3.5,0 0.9625,0.2515275 0.175,0.4573228 -1.75,0.4573228 -1.925,0 -2.7125,-0.2057953 -1.75,-0.4573228 z"
         id="path11" />
      <path
         style="fill-opacity:1.0;fill:#606060"
         d="m 53.157895,74 c 0,-1.375 0.226973,-1.9375 0.504386,-1.25 0.277412,0.6875 0.277412,1.8125 0,2.5 -0.277413,0.6875 -0.504386,0.125 -0.504386,-1.25 z M 136,74.622445 c 0,-0.207656 0.7875,-0.995156 1.75,-1.75 1.58606,-1.243871 1.62143,-1.208501 0.37756,0.377555 C 136.82119,74.915748 136,75.445479 136,74.622445 Z M 74.8125,52.316886 c 0.721875,-0.288871 1.584375,-0.253344 1.916667,0.07895 0.332291,0.332292 -0.258334,0.568641 -1.3125,0.52522 -1.164943,-0.04798 -1.4019,-0.284941 -0.604167,-0.604167 z m 11,-8 c 0.721875,-0.288871 1.584375,-0.253344 1.916667,0.07895 0.332291,0.332292 -0.258334,0.568641 -1.3125,0.52522 -1.164943,-0.04798 -1.4019,-0.284941 -0.604167,-0.604167 z M 63.078947,26.416667 c 0.04798,-1.164943 0.284941,-1.4019 0.604167,-0.604167 0.288871,0.721875 0.253344,1.584375 -0.07895,1.916667 -0.332292,0.332291 -0.568641,-0.258334 -0.52522,-1.3125 z M 90.26375,0.28241877 c 1.520062,-0.22985437 3.770062,-0.22371186 5,0.01365 C 96.493687,0.53343071 95.25,0.72149338 92.5,0.71398585 89.75,0.70647833 88.743687,0.51227315 90.26375,0.28241877 Z"
         id="path10" />
      <path
         style="fill-opacity:1.0;fill:#494949"
         d="m 134.8125,144.31689 c 0.72187,-0.28887 1.58437,-0.25335 1.91667,0.0789 0.33229,0.33229 -0.25834,0.56864 -1.3125,0.52522 -1.16495,-0.048 -1.4019,-0.28494 -0.60417,-0.60416 z M 165,86.622445 c 0,-0.207656 0.7875,-0.995156 1.75,-1.75 1.58606,-1.243871 1.62143,-1.208501 0.37756,0.377555 C 165.82119,86.915748 165,87.445479 165,86.622445 Z m 7.07895,-13.205778 c 0.048,-1.164943 0.28494,-1.4019 0.60416,-0.604167 0.28887,0.721875 0.25335,1.584375 -0.0789,1.916667 -0.3323,0.332291 -0.56864,-0.258334 -0.52522,-1.3125 z M 169.87244,68.25 C 168.62857,66.663944 168.66394,66.628574 170.25,67.872445 171.91575,69.178814 172.44548,70 171.62244,70 c -0.20765,0 -0.99515,-0.7875 -1.75,-1.75 z M 77.8125,47.316886 c 0.721875,-0.288871 1.584375,-0.253344 1.916667,0.07895 0.332291,0.332292 -0.258334,0.568641 -1.3125,0.52522 -1.164943,-0.04798 -1.4019,-0.284941 -0.604167,-0.604167 z m 11.949159,-3.024147 c 1.243913,-0.239193 3.043913,-0.230112 4,0.02018 C 94.717747,44.563212 93.7,44.758916 91.5,44.747817 89.3,44.736717 88.517747,44.531932 89.761659,44.292739 Z M 43.5,18 c 0.995486,-1.1 2.034975,-2 2.309975,-2 0.275,0 -0.314489,0.9 -1.309975,2 -0.995486,1.1 -2.034975,2 -2.309975,2 -0.275,0 0.314489,-0.9 1.309975,-2 z"
         id="path9" />
      <path
         style="fill-opacity:1.0;fill:#333333"
         d="m 40,146 c -4.463448,-4.46345 -1.943749,-7.49089 12.30663,-14.78652 6.706354,-3.43339 16.01837,-8.2882 20.69337,-10.78846 4.675,-2.50026 18.4,-9.6651 30.5,-15.92186 33.71155,-17.431822 30.22043,-14.961434 30.71011,-21.731135 0.35506,-4.908671 0.92467,-6.315872 3.72684,-9.206974 4.59197,-4.737709 13.39306,-7.859169 22.15927,-7.859169 5.96588,0 7.32888,0.342913 9.52781,2.397059 3.66876,3.427214 2.90027,9.278281 -2.05727,15.663472 -9.18068,11.8245 -21.16759,16.332867 -27.82082,10.463629 -1.46029,-1.288212 -2.21396,-1.341029 -4.5,-0.315357 -2.54447,1.141618 -15.67527,8.690855 -26.24594,15.089465 -2.475,1.49816 -11.25,6.67919 -19.5,11.51341 -8.25,4.83422 -22.082269,12.9954 -30.738375,18.13596 C 50.105518,143.79409 42.793018,148 42.511625,148 42.230231,148 41.1,147.1 40,146 Z m 73.5,-12.02405 c -9.9,-5.48547 -18.3375,-9.97411 -18.75,-9.97476 -2.078369,-0.003 -0.285563,-1.90687 3.332452,-3.53837 2.996418,-1.3512 4.526058,-1.56575 5.749998,-0.80651 0.91715,0.56893 8.55843,4.53815 16.98061,8.82049 15.0225,7.63832 19.05803,10.8108 17.82828,14.01548 -1.33109,3.46876 -6.94002,1.5688 -25.14134,-8.51633 z M 61.609554,105.34941 C 47.883106,97.824616 47.686476,97.753988 44.955262,99.367356 41.545373,101.38163 37.020792,101.45335 32.500831,99.564794 28.716215,97.98348 2.4034664,80.461839 1.4174087,78.866364 -0.0134944,76.551115 2.1907562,77.735833 15,86.166601 28.910767,95.322367 32.416463,96.983537 34.156237,95.243763 35.575764,93.824236 34.657936,93.154244 17.25,82.902626 8.8625,77.963186 2,73.489416 2,72.960913 2,72.432411 2.1677211,72 2.3727136,72 2.577706,72 9.8847151,76.05 18.610511,81 34.57782,90.05799 38.440031,91.523416 37.816829,88.287386 37.613749,87.232875 31.153613,83.211628 21.005269,77.822678 11.940311,73.009026 4.3674604,68.602381 4.1767115,68.030134 3.8416473,67.024942 10.476939,70.065773 27.727803,78.823162 32.253094,81.120423 36.865594,83 37.977803,83 41.480327,83 40.175787,80.173055 35.75,78.17234 24.303114,72.997678 7.9785646,64.688102 8.4106786,64.255988 9.0325418,63.634125 36.047118,74.409673 42,77.654064 c 5.543404,3.021221 8.050687,6.304947 8.740391,11.44707 l 0.529111,3.944818 16.115249,8.095268 c 8.863387,4.4524 16.269568,8.23388 16.458179,8.40329 0.53032,0.47633 -5.578439,3.45777 -7.04327,3.43754 -0.714813,-0.01 -7.550361,-3.44456 -15.190106,-7.63264 z M 54.993952,77.492713 c -0.898975,-1.083199 -1.054302,-3.50282 -0.55206,-8.599789 l 0.698878,-7.092503 -3.865252,0.65303 C 45.480069,63.432586 40.546822,60.947386 32.244173,52.866113 28.870969,49.582851 27.667781,43.917262 28.990562,37.545463 29.983793,32.761094 30.943826,31.386213 38.544353,23.863309 47.176252,15.319567 53.541077,11.424197 60.738778,10.279981 62.80745,9.9511254 65.85,8.6964611 67.5,7.4918384 73.016054,3.4647085 79.08013,1.7470437 89.570627,1.240277 99.770262,0.74756095 108.54482,2.2820752 113.5,5.4250969 c 1.1,0.6977198 4.475,1.5921376 7.5,1.9875951 16.45944,2.1517393 26.49961,13.587911 22.97651,26.171198 -0.68797,2.457198 -1.65743,4.71891 -2.15436,5.026028 -0.49693,0.307118 -0.64874,1.361088 -0.33736,2.342157 1.49297,4.703933 -5.03667,11.199744 -12.6396,12.574116 -3.30574,0.597574 -3.75942,1.076094 -4.75,5.010063 -0.60236,2.392162 -1.17626,5.612617 -1.27535,7.156566 -0.0991,1.543949 -0.43659,-0.564035 -0.75,-4.684408 -0.51627,-6.78729 -0.81039,-7.606405 -3.12855,-8.712884 -9.86946,-4.710782 -32.31057,-6.586113 -47.205867,-3.944843 -10.600506,1.879708 -14.130751,3.434105 -14.554974,6.408682 -0.391193,2.742975 0.32304,2.766025 7.787786,0.251334 8.882158,-2.992183 20.493373,-3.514686 34.515365,-1.553187 6.59098,0.921994 12.21598,1.928648 12.5,2.237007 0.28402,0.30836 -1.0586,0.271725 -2.9836,-0.08141 -1.925,-0.353137 -10.025,-0.91678 -18,-1.25254 -11.75981,-0.495108 -15.728052,-0.295279 -20.998366,1.057415 -9.219551,2.366317 -10.148566,3.210943 -11.655054,10.596343 -0.714299,3.501774 -1.196992,6.458355 -1.072652,6.570182 0.124339,0.111826 2.995752,-0.37278 6.380916,-1.076901 C 78.721405,68.37373 97.558078,68.981137 109.5,72.985929 l 3,1.006068 -3,-0.571364 c -6.94317,-1.322356 -31.342128,-1.613939 -39.063733,-0.466835 -9.33288,1.386471 -12.284991,2.677997 -8.489819,3.714231 2.26712,0.619015 2.303771,0.723813 0.5,1.42969 -3.174543,1.242305 -6.117655,1.003379 -7.452496,-0.605006 z M 54.013655,57.25 c 0.0075,-0.9625 0.258862,-2.662571 0.55856,-3.777936 0.435656,-1.62135 -0.163004,-2.283919 -2.985946,-3.304708 -1.941969,-0.702225 -4.893321,-2.929684 -6.55856,-4.949908 -4.0534,-4.917476 -3.871183,-6.108467 0.247043,-1.614705 4.773506,5.208797 11.533546,6.807138 19.954806,4.718105 3.448743,-0.855518 6.628425,-1.883176 7.06596,-2.283685 0.437535,-0.400509 -0.600015,-2.222121 -2.305666,-4.048027 -4.455217,-4.769324 -6.008905,-9.237504 -5.863047,-16.86126 L 64.25361,18.5 l 0.801585,6.14947 c 0.980829,7.524572 3.676993,13.030192 8.420687,17.19521 C 76.984286,44.9251 77.301772,45 86.850655,45 l 9.781063,0 2.171407,-3.863497 c 1.194274,-2.124924 2.581935,-5.612424 3.083685,-7.75 L 102.7991,29.5 l 0.0949,3.5 c 0.0522,1.925 -0.38542,5.229697 -0.97244,7.343771 -0.58703,2.114074 -0.89565,4.015439 -0.68584,4.225254 0.20982,0.209816 3.40968,1.016247 7.11081,1.792069 l 6.72933,1.410585 2.08371,-4.084398 C 119.47153,39.155394 126.05696,29 126.68373,29 c 0.22032,0 -0.71237,1.9125 -2.07264,4.25 -1.36026,2.3375 -3.42619,6.684871 -4.59095,9.660824 -2.51356,6.42215 -2.01729,7.051056 5.58198,7.073863 6.70393,0.02012 11.86171,-3.223121 11.97677,-7.531071 0.0434,-1.624489 0.88051,-4.489723 1.86026,-6.367186 1.30801,-2.506465 1.65934,-4.885213 1.32213,-8.951577 -0.4194,-5.057322 -0.85282,-5.894325 -4.99356,-9.643175 C 131.60273,13.720864 125.67883,11 121.63398,11 c -1.99347,0 -1.99178,-0.100587 -0.0754,4.485962 0.85722,2.051615 1.36779,3.921 1.1346,4.154188 -0.23319,0.233189 -1.00049,-0.967845 -1.70511,-2.668963 C 119.47122,13.309193 115.25181,9.8986674 108.44495,6.8326578 104.30559,4.9681712 101.70797,4.6030352 92.5,4.5913499 82.586239,4.5787688 80.910184,4.8497419 75.527124,7.3354073 c -3.285081,1.5169093 -6.660081,3.3630057 -7.5,4.1024357 -0.839918,0.739431 -3.450622,1.659822 -5.801564,2.045315 -6.060914,0.993831 -15.410318,5.922894 -18.077643,9.530644 -1.246049,1.685371 -2.639773,4.959236 -3.097165,7.275255 -0.624252,3.160925 -0.858941,3.525218 -0.941186,1.460943 -0.303615,-7.620464 -7.282651,1.494779 -7.923051,10.34821 -0.399091,5.517372 -0.236307,6.074921 2.442952,8.367354 1.578793,1.35085 4.445533,3.810528 6.370533,5.46595 2.810885,2.417248 4.435228,3.015631 8.25,3.039173 3.863227,0.02384 4.752549,-0.297393 4.763655,-1.720687 z M 113.8125,56.316886 c 0.72187,-0.288871 1.58437,-0.253344 1.91667,0.07895 0.33229,0.332292 -0.25834,0.568641 -1.3125,0.52522 -1.16495,-0.04798 -1.4019,-0.284941 -0.60417,-0.604167 z"
         id="path8" />
    </g>
  </g>
  <g
     id="g2">
    <g
       id="g14">
      <path
         style="fill:#000000"
         d="m 40.222506,146.4433 c -2.383555,-1.66951 -2.835601,-4.4292 -1.22,-7.44798 0.551379,-1.03026 6.063879,-4.43205 12.25,-7.55952 C 57.438628,128.30832 64.3,124.73719 66.5,123.49995 c 4.123853,-2.31919 13.636389,-7.31898 43,-22.60082 26.64949,-13.869323 23.98978,-11.98875 24.06905,-17.018214 0.13817,-8.766751 5.65119,-14.425311 16.89105,-17.336968 11.24067,-2.911868 19.97573,-1.050891 21.96274,4.679097 2.11825,6.108439 -9.90214,21.799857 -18.99983,24.802363 -4.59717,1.517204 -11.90833,0.750347 -14.40726,-1.511156 -1.82497,-1.651575 -2.85982,-1.157504 -25.20942,12.035848 C 90.743944,120.16422 74.154836,129.99771 54.214772,141.87408 48.557896,145.24334 43.595524,148 43.187278,148 c -0.408246,0 -1.742393,-0.70052 -2.964772,-1.5567 z m 88.676434,-3.78309 c -6.36552,-3.38582 -27.83941,-15.1296 -31.642617,-17.30492 -1.784023,-1.02041 -3.246523,-2.10434 -3.25,-2.40873 -0.0035,-0.3044 1.65354,-1.50205 3.682262,-2.66146 l 3.688585,-2.10802 15.63921,7.83112 C 134.25902,134.64221 139,137.97927 139,141.4819 c 0,4.09224 -3.79125,4.53449 -10.10106,1.17831 z M 74.45,113.08174 C 73.9275,112.5767 67.671938,109.01198 60.548752,105.16013 47.826923,98.280836 47.544993,98.183933 44.633149,99.689706 42.676226,100.70167 40.02821,101.06499 36.841401,100.75878 32.807335,100.37116 29.729624,98.77979 18.11351,91.075286 5.4484824,82.675081 -1.660021,77 0.48306054,77 0.94048926,77 7.9691305,81.275 16.102263,86.5 24.235396,91.725 31.589577,96 32.444889,96 36.840788,96 32.451864,92.300268 18.035927,83.853676 9.2556869,78.709154 2.0556869,73.9375 2.035927,73.25 1.9944833,71.80806 4.1529165,71.583663 5.55,72.884667 7.2596094,74.476704 34.798717,90 35.913462,90 36.511058,90 36.998349,89.2125 36.996331,88.25 36.99372,87.004632 32.385425,84.102358 21.015351,78.185284 5.8993357,70.318793 3.1350278,68.531639 4.2927321,67.373935 c 0.2711518,-0.271152 7.7926499,3.162193 16.7144409,7.629657 14.336452,7.17878 20.45283,9.16776 18.506177,6.018009 C 39.175973,80.475713 31.947451,76.6798 23.449968,72.58624 14.952486,68.49268 8,64.655099 8,64.058282 c 0,-0.68797 1.3724898,-0.498171 3.75,0.518581 2.0625,0.882036 9.375,3.811522 16.25,6.509968 6.875,2.698447 13.966613,5.803706 15.75914,6.900578 4.105991,2.51251 7.23227,7.564584 7.237122,11.695203 0.0025,2.138075 0.57809,3.375649 1.753738,3.770777 0.9625,0.323491 8.693142,4.122086 17.179205,8.441321 l 15.429204,7.85316 -4.806322,2.12606 c -5.62359,2.48759 -4.921786,2.34868 -6.102087,1.20781 z M 55.462507,77.791848 C 53.257182,76.057139 52.924761,75.175383 53.414885,72.360469 53.736698,70.512211 54.253976,67.5375 54.564391,65.75 l 0.56439,-3.25 H 49.23114 c -5.08981,0 -6.388569,-0.410926 -9.481703,-3 C 37.778204,57.85 34.95682,55.656532 33.479695,54.625627 28.529984,51.171157 26.827584,43.76294 29.101437,35.573059 30.804373,29.439485 45.735522,14.990948 53.293158,12.163274 56.473185,10.973473 60.070645,9.9918112 61.287513,9.9818027 62.504381,9.9717942 65.48736,8.6169964 67.916356,6.9711409 79.442679,-0.83894426 98.365074,-1.9040047 112.35632,4.4698057 115.18534,5.7585871 119.75,7.0777557 122.5,7.4012916 138.38416,9.2700531 148.76821,23.045645 143.60595,35.400668 142.72268,37.514637 142,40.504766 142,42.045399 142,47.41995 134.08632,54 127.62247,54 c -2.2579,0 -2.52905,0.545925 -3.60094,7.25 -1.63442,10.222427 -1.85337,10.329388 -1.94258,0.948973 L 122,53.897947 118.49478,52.433371 C 106.41033,47.384167 83.438734,46.046385 67.5,49.46362 58.757665,51.337961 57,52.285229 57,55.122445 c 0,2.16455 1.224676,2.364502 4.315741,0.704628 C 65.244977,53.71711 75.325799,52.070827 84.5,52.040888 c 9.951102,-0.03247 31.10836,3.155689 32.87385,4.953721 0.84455,0.860124 0.4086,0.969583 -1.74341,0.437739 -15.54622,-3.842068 -40.457211,-4.101525 -49.8071,-0.518759 -5.547186,2.125616 -5.701141,2.289379 -6.75,7.180041 -1.685045,7.857094 -1.568632,8.257742 2.17666,7.491189 16.125047,-3.300333 31.561344,-3.143766 45.75,0.464035 10.24338,2.604621 12.86721,4.262906 3.28739,2.077666 -8.79063,-2.00522 -35.375798,-2.1605 -43.742454,-0.255493 -5.212305,1.186792 -5.737553,1.51496 -4.211168,2.63108 1.589333,1.162148 1.478781,1.367588 -1.247314,2.31791 -2.504437,0.873052 -3.419647,0.705733 -5.623947,-1.028169 z M 52.600971,58.234687 c 0.605533,-0.404078 1.332121,-1.979979 1.614638,-3.502003 0.437246,-2.355603 0.0367,-2.99365 -2.69223,-4.288614 -4.80298,-2.279163 -9.407241,-7.531134 -10.056803,-11.471555 L 40.894147,35.5 l 1.431143,3 c 3.026194,6.343588 9.761244,10.5 17.014201,10.5 1.568982,0 5.329177,-0.719933 8.355989,-1.599851 L 73.198774,45.800298 70.21134,42.650149 C 64.560212,36.691225 62.304987,29.108859 63.920646,21.5 l 0.849356,-4 0.126868,3.5 c 0.192298,5.305074 2.640566,13.541648 5.017318,16.879488 1.166879,1.638731 3.592001,3.888269 5.38916,4.998974 2.886915,1.784212 4.347636,1.94949 12.539184,1.418782 l 9.271623,-0.600682 1.916431,-3.756515 c 1.054034,-2.066084 2.210864,-5.59781 2.570734,-7.848281 0.59306,-3.708809 2.40689,-5.862887 2.39289,-2.841766 -0.01,2.097657 -1.79529,12.149132 -2.45719,13.832232 -0.50783,1.291298 0.68456,1.815771 6.48472,2.852317 3.90883,0.698547 7.19257,1.111542 7.2972,0.917768 0.10463,-0.193774 1.53818,-2.972941 3.18565,-6.175925 3.14587,-6.116139 9.38257,-14.022955 9.45378,-11.985409 0.0229,0.655041 -0.46653,1.505042 -1.08761,1.888892 C 125.48457,31.436587 119,45.285428 119,47.389147 c 0,1.882916 5.67095,3.082765 10.38792,2.197856 4.38455,-0.822546 8.92815,-5.270351 8.20576,-8.03276 -0.29408,-1.124562 0.40714,-3.990223 1.55827,-6.368136 3.65125,-7.542473 1.38324,-14.929352 -6.01839,-19.601797 -4.17189,-2.633598 -11.81132,-5.239888 -12.71374,-4.33746 -0.31201,0.312009 0.16822,1.989614 1.06718,3.728011 0.89896,1.738397 1.45468,3.692715 1.23493,4.34293 C 122.50219,19.968006 121.61761,19.15 120.75621,17.5 118.71193,13.584202 115.54271,10.760662 110,7.9169929 106.4049,6.0725406 103.43515,5.5241799 95.231664,5.1900437 83.398346,4.7080607 77.482651,5.879668 71,9.9891406 68.525,11.558089 63.907078,13.511071 60.737951,14.329101 49.059624,17.343566 42.721276,22.740249 41.090225,31.057833 40.611124,33.501025 40.113577,34.7125 39.984566,33.75 39.855555,32.7875 39.69375,31.5875 39.625,31.083333 c -0.531963,-3.901061 -5.007829,0.910954 -6.703028,7.206442 -1.52508,5.663713 -0.430365,10.171445 3.136346,12.914606 1.641644,1.26259 4.425392,3.533119 6.186106,5.045619 3.130656,2.689316 7.924062,3.607905 10.356547,1.984687 z"
         id="path2" />
    </g>
  </g>
</svg>
